<svg width="114" height="38" viewBox="0 0 114 38" fill="none" xmlns="http://www.w3.org/2000/svg">
<path d="M46.9 25.8916C46.7667 25.8916 46.6467 25.8449 46.54 25.7516C46.4467 25.6449 46.4 25.5249 46.4 25.3916V12.3916C46.4 12.2449 46.4467 12.1249 46.54 12.0316C46.6467 11.9383 46.7667 11.8916 46.9 11.8916H49.06C49.38 11.8916 49.6133 12.0383 49.76 12.3316L53.28 18.6316L56.8 12.3316C56.9467 12.0383 57.18 11.8916 57.5 11.8916H59.64C59.7867 11.8916 59.9067 11.9383 60 12.0316C60.1067 12.1249 60.16 12.2449 60.16 12.3916V25.3916C60.16 25.5383 60.1067 25.6583 60 25.7516C59.9067 25.8449 59.7867 25.8916 59.64 25.8916H57.26C57.1133 25.8916 56.9867 25.8449 56.88 25.7516C56.7867 25.6583 56.74 25.5383 56.74 25.3916V17.8916L54.5 22.0716C54.3267 22.3783 54.0933 22.5316 53.8 22.5316H52.76C52.5867 22.5316 52.4467 22.4916 52.34 22.4116C52.2333 22.3316 52.14 22.2183 52.06 22.0716L49.8 17.8916V25.3916C49.8 25.5249 49.7533 25.6449 49.66 25.7516C49.5667 25.8449 49.4467 25.8916 49.3 25.8916H46.9ZM63.4625 25.8916C63.3292 25.8916 63.2092 25.8449 63.1025 25.7516C63.0092 25.6449 62.9625 25.5249 62.9625 25.3916V12.3916C62.9625 12.2449 63.0092 12.1249 63.1025 12.0316C63.2092 11.9383 63.3292 11.8916 63.4625 11.8916H66.1425C66.2892 11.8916 66.4092 11.9383 66.5025 12.0316C66.6092 12.1249 66.6625 12.2449 66.6625 12.3916V25.3916C66.6625 25.5383 66.6092 25.6583 66.5025 25.7516C66.4092 25.8449 66.2892 25.8916 66.1425 25.8916H63.4625ZM77.1773 25.8916C76.7507 25.8916 76.4773 25.6916 76.3573 25.2916L72.2773 12.4916L72.2373 12.3116C72.2373 12.2049 72.2773 12.1116 72.3573 12.0316C72.4507 11.9383 72.5573 11.8916 72.6773 11.8916H75.1573C75.344 11.8916 75.4973 11.9449 75.6173 12.0516C75.7507 12.1583 75.8373 12.2783 75.8773 12.4116L78.7173 21.6516L81.5373 12.4116C81.5773 12.2783 81.6573 12.1583 81.7773 12.0516C81.9107 11.9449 82.0707 11.8916 82.2573 11.8916H84.7573C84.864 11.8916 84.9573 11.9383 85.0373 12.0316C85.1307 12.1116 85.1773 12.2049 85.1773 12.3116L85.1373 12.4916L81.0573 25.2916C80.9373 25.6916 80.664 25.8916 80.2373 25.8916H77.1773ZM87.5445 25.8916C87.4112 25.8916 87.2912 25.8449 87.1845 25.7516C87.0912 25.6449 87.0445 25.5249 87.0445 25.3916V12.3916C87.0445 12.2449 87.0912 12.1249 87.1845 12.0316C87.2912 11.9383 87.4112 11.8916 87.5445 11.8916H93.1445C94.8512 11.8916 96.1912 12.2849 97.1645 13.0716C98.1512 13.8583 98.6445 15.0049 98.6445 16.5116C98.6445 18.0049 98.1579 19.1316 97.1845 19.8916C96.2112 20.6383 94.8645 21.0116 93.1445 21.0116H90.7645V25.3916C90.7645 25.5383 90.7112 25.6583 90.6045 25.7516C90.5112 25.8449 90.3912 25.8916 90.2445 25.8916H87.5445ZM93.0445 18.2516C93.6312 18.2516 94.0912 18.1049 94.4245 17.8116C94.7579 17.5049 94.9245 17.0583 94.9245 16.4716C94.9245 15.9249 94.7645 15.4916 94.4445 15.1716C94.1379 14.8383 93.6712 14.6716 93.0445 14.6716H90.7045V18.2516H93.0445ZM101.06 25.8916C100.927 25.8916 100.807 25.8449 100.7 25.7516C100.607 25.6449 100.56 25.5249 100.56 25.3916V12.3916C100.56 12.2449 100.607 12.1249 100.7 12.0316C100.807 11.9383 100.927 11.8916 101.06 11.8916H103.18C103.513 11.8916 103.74 12.0183 103.86 12.2716L108.74 19.9516V12.3916C108.74 12.2449 108.787 12.1249 108.88 12.0316C108.987 11.9383 109.107 11.8916 109.24 11.8916H111.64C111.787 11.8916 111.907 11.9383 112 12.0316C112.093 12.1249 112.14 12.2449 112.14 12.3916V25.3716C112.14 25.5183 112.093 25.6449 112 25.7516C111.907 25.8449 111.787 25.8916 111.64 25.8916H109.5C109.207 25.8916 108.987 25.7649 108.84 25.5116L103.96 18.1116V25.3916C103.96 25.5249 103.913 25.6449 103.82 25.7516C103.727 25.8449 103.607 25.8916 103.46 25.8916H101.06Z" fill="#0B132A"/>
<path d="M31.1473 14.4231L31.1255 14.4014C31.1238 14.4001 31.1224 14.3985 31.1215 14.3966L17.5006 0.775391L3.87983 14.3963C3.87826 14.3979 3.8758 14.401 3.8758 14.401L3.85333 14.4228C1.77053 16.5173 0.447586 19.2479 0.0948177 22.1806C-0.25795 25.1133 0.379698 28.0798 1.90639 30.6085C3.43309 33.1373 5.76122 35.0831 8.52069 36.1366C11.2802 37.1901 14.3126 37.2911 17.136 36.4231C17.3735 36.3505 17.6275 36.3505 17.8651 36.4231C20.6882 37.2907 23.7205 37.1898 26.4798 36.1361C29.2391 35.0824 31.567 33.1367 33.0936 30.6082C34.6202 28.0796 35.2579 25.1133 34.9053 22.1808C34.5526 19.2482 33.2299 16.5176 31.1473 14.4231ZM8.7232 23.4052C8.65689 23.4715 8.6043 23.5503 8.56844 23.6368C8.53257 23.7234 8.5141 23.8162 8.51412 23.91C8.53835 26.314 9.21776 28.6658 10.4792 30.7125C10.5079 30.7589 10.5211 30.8132 10.517 30.8676C10.513 30.9219 10.4918 30.9736 10.4566 31.0153C10.4213 31.057 10.3738 31.0864 10.3209 31.0994C10.2679 31.1124 10.2122 31.1084 10.1616 31.0878C9.21332 30.6889 8.35182 30.109 7.62531 29.3807C6.13646 27.8916 5.29946 25.8724 5.2981 23.7666C5.29675 21.6609 6.13117 19.6406 7.61812 18.1497L17.5006 8.26812L27.3826 18.1497C28.8698 19.6404 29.7045 21.6607 29.703 23.7666C29.7018 25.8724 28.8647 27.8916 27.3757 29.3807C26.6492 30.109 25.7877 30.6889 24.8396 31.0878C24.7889 31.1084 24.7332 31.1124 24.6802 31.0994C24.6273 31.0864 24.5798 31.0568 24.5445 31.0153C24.5093 30.9736 24.488 30.9219 24.484 30.8674C24.4799 30.8131 24.4931 30.7587 24.5218 30.7123C25.7835 28.6658 26.4633 26.314 26.4879 23.91C26.4879 23.8162 26.4692 23.7234 26.4332 23.6367C26.3971 23.55 26.3444 23.4713 26.2779 23.405L21.6037 18.4471C21.5571 18.4083 21.4985 18.387 21.4378 18.387C21.3773 18.387 21.3186 18.4083 21.2721 18.4471C21.2255 18.4858 21.1942 18.5398 21.1833 18.5994C21.1724 18.6591 21.1828 18.7204 21.2127 18.7732C23.0281 22.0584 21.467 26.7771 18.8637 29.3807L18.85 29.3945C18.4907 29.7499 18.0056 29.9492 17.5002 29.949C16.9948 29.9488 16.5098 29.7492 16.1508 29.3936L16.1382 29.3807C13.5339 26.7771 11.9736 22.0589 13.7893 18.7739C13.8192 18.7211 13.8296 18.6598 13.8187 18.6001C13.8079 18.5405 13.7764 18.4865 13.7299 18.4478C13.6834 18.409 13.6247 18.3877 13.5642 18.3877C13.5036 18.3877 13.4449 18.409 13.3984 18.4478L8.7232 23.4052Z" fill="#F53838"/>
</svg>
