<svg width="114" height="37" viewBox="0 0 114 37" fill="none" xmlns="http://www.w3.org/2000/svg">
<path d="M46.9 25.1162C46.7667 25.1162 46.6467 25.0695 46.54 24.9762C46.4467 24.8695 46.4 24.7495 46.4 24.6162V11.6162C46.4 11.4695 46.4467 11.3495 46.54 11.2562C46.6467 11.1629 46.7667 11.1162 46.9 11.1162H49.06C49.38 11.1162 49.6133 11.2629 49.76 11.5562L53.28 17.8562L56.8 11.5562C56.9467 11.2629 57.18 11.1162 57.5 11.1162H59.64C59.7867 11.1162 59.9067 11.1629 60 11.2562C60.1067 11.3495 60.16 11.4695 60.16 11.6162V24.6162C60.16 24.7629 60.1067 24.8829 60 24.9762C59.9067 25.0695 59.7867 25.1162 59.64 25.1162H57.26C57.1133 25.1162 56.9867 25.0695 56.88 24.9762C56.7867 24.8829 56.74 24.7629 56.74 24.6162V17.1162L54.5 21.2962C54.3267 21.6029 54.0933 21.7562 53.8 21.7562H52.76C52.5867 21.7562 52.4467 21.7162 52.34 21.6362C52.2333 21.5562 52.14 21.4429 52.06 21.2962L49.8 17.1162V24.6162C49.8 24.7495 49.7533 24.8695 49.66 24.9762C49.5667 25.0695 49.4467 25.1162 49.3 25.1162H46.9ZM63.4625 25.1162C63.3292 25.1162 63.2092 25.0695 63.1025 24.9762C63.0092 24.8695 62.9625 24.7495 62.9625 24.6162V11.6162C62.9625 11.4695 63.0092 11.3495 63.1025 11.2562C63.2092 11.1629 63.3292 11.1162 63.4625 11.1162H66.1425C66.2892 11.1162 66.4092 11.1629 66.5025 11.2562C66.6092 11.3495 66.6625 11.4695 66.6625 11.6162V24.6162C66.6625 24.7629 66.6092 24.8829 66.5025 24.9762C66.4092 25.0695 66.2892 25.1162 66.1425 25.1162H63.4625ZM77.1773 25.1162C76.7507 25.1162 76.4773 24.9162 76.3573 24.5162L72.2773 11.7162L72.2373 11.5362C72.2373 11.4295 72.2773 11.3362 72.3573 11.2562C72.4507 11.1629 72.5573 11.1162 72.6773 11.1162H75.1573C75.344 11.1162 75.4973 11.1695 75.6173 11.2762C75.7507 11.3829 75.8373 11.5029 75.8773 11.6362L78.7173 20.8762L81.5373 11.6362C81.5773 11.5029 81.6573 11.3829 81.7773 11.2762C81.9107 11.1695 82.0707 11.1162 82.2573 11.1162H84.7573C84.864 11.1162 84.9573 11.1629 85.0373 11.2562C85.1307 11.3362 85.1773 11.4295 85.1773 11.5362L85.1373 11.7162L81.0573 24.5162C80.9373 24.9162 80.664 25.1162 80.2373 25.1162H77.1773ZM87.5445 25.1162C87.4112 25.1162 87.2912 25.0695 87.1845 24.9762C87.0912 24.8695 87.0445 24.7495 87.0445 24.6162V11.6162C87.0445 11.4695 87.0912 11.3495 87.1845 11.2562C87.2912 11.1629 87.4112 11.1162 87.5445 11.1162H93.1445C94.8512 11.1162 96.1912 11.5095 97.1645 12.2962C98.1512 13.0829 98.6445 14.2295 98.6445 15.7362C98.6445 17.2295 98.1579 18.3562 97.1845 19.1162C96.2112 19.8629 94.8645 20.2362 93.1445 20.2362H90.7645V24.6162C90.7645 24.7629 90.7112 24.8829 90.6045 24.9762C90.5112 25.0695 90.3912 25.1162 90.2445 25.1162H87.5445ZM93.0445 17.4762C93.6312 17.4762 94.0912 17.3295 94.4245 17.0362C94.7579 16.7295 94.9245 16.2829 94.9245 15.6962C94.9245 15.1495 94.7645 14.7162 94.4445 14.3962C94.1379 14.0629 93.6712 13.8962 93.0445 13.8962H90.7045V17.4762H93.0445ZM101.06 25.1162C100.927 25.1162 100.807 25.0695 100.7 24.9762C100.607 24.8695 100.56 24.7495 100.56 24.6162V11.6162C100.56 11.4695 100.607 11.3495 100.7 11.2562C100.807 11.1629 100.927 11.1162 101.06 11.1162H103.18C103.513 11.1162 103.74 11.2429 103.86 11.4962L108.74 19.1762V11.6162C108.74 11.4695 108.787 11.3495 108.88 11.2562C108.987 11.1629 109.107 11.1162 109.24 11.1162H111.64C111.787 11.1162 111.907 11.1629 112 11.2562C112.093 11.3495 112.14 11.4695 112.14 11.6162V24.5962C112.14 24.7429 112.093 24.8695 112 24.9762C111.907 25.0695 111.787 25.1162 111.64 25.1162H109.5C109.207 25.1162 108.987 24.9895 108.84 24.7362L103.96 17.3362V24.6162C103.96 24.7495 103.913 24.8695 103.82 24.9762C103.727 25.0695 103.607 25.1162 103.46 25.1162H101.06Z" fill="#0B132A"/>
<path d="M31.1473 13.6477L31.1255 13.626C31.1238 13.6247 31.1224 13.6231 31.1215 13.6212L17.5006 0L3.87983 13.6209C3.87826 13.6225 3.8758 13.6256 3.8758 13.6256L3.85333 13.6474C1.77053 15.7419 0.447586 18.4725 0.0948177 21.4052C-0.25795 24.3379 0.379698 27.3044 1.90639 29.8331C3.43309 32.3619 5.76122 34.3077 8.52069 35.3612C11.2802 36.4147 14.3126 36.5157 17.136 35.6477C17.3735 35.5751 17.6275 35.5751 17.8651 35.6477C20.6882 36.5153 23.7205 36.4144 26.4798 35.3607C29.2391 34.307 31.567 32.3613 33.0936 29.8328C34.6202 27.3042 35.2579 24.3379 34.9053 21.4054C34.5526 18.4728 33.2299 15.7422 31.1473 13.6477ZM8.7232 22.6298C8.65689 22.6961 8.6043 22.7749 8.56844 22.8615C8.53257 22.948 8.5141 23.0408 8.51412 23.1346C8.53835 25.5386 9.21776 27.8904 10.4792 29.9371C10.5079 29.9835 10.5211 30.0379 10.517 30.0922C10.513 30.1465 10.4918 30.1982 10.4566 30.2399C10.4213 30.2816 10.3738 30.311 10.3209 30.324C10.2679 30.337 10.2122 30.333 10.1616 30.3124C9.21332 29.9135 8.35182 29.3336 7.62531 28.6053C6.13646 27.1162 5.29946 25.097 5.2981 22.9912C5.29675 20.8855 6.13117 18.8652 7.61812 17.3743L17.5006 7.49273L27.3826 17.3743C28.8698 18.865 29.7045 20.8853 29.703 22.9912C29.7018 25.097 28.8647 27.1162 27.3757 28.6053C26.6492 29.3336 25.7877 29.9135 24.8396 30.3124C24.7889 30.333 24.7332 30.337 24.6802 30.324C24.6273 30.311 24.5798 30.2814 24.5445 30.2399C24.5093 30.1982 24.488 30.1465 24.484 30.092C24.4799 30.0377 24.4931 29.9833 24.5218 29.9369C25.7835 27.8904 26.4633 25.5386 26.4879 23.1346C26.4879 23.0408 26.4692 22.948 26.4332 22.8613C26.3971 22.7746 26.3444 22.696 26.2779 22.6296L21.6037 17.6717C21.5571 17.6329 21.4985 17.6116 21.4378 17.6116C21.3773 17.6116 21.3186 17.6329 21.2721 17.6717C21.2255 17.7104 21.1942 17.7644 21.1833 17.824C21.1724 17.8837 21.1828 17.945 21.2127 17.9978C23.0281 21.283 21.467 26.0017 18.8637 28.6053L18.85 28.6191C18.4907 28.9745 18.0056 29.1738 17.5002 29.1736C16.9948 29.1734 16.5098 28.9738 16.1508 28.6182L16.1382 28.6053C13.5339 26.0017 11.9736 21.2835 13.7893 17.9985C13.8192 17.9457 13.8296 17.8844 13.8187 17.8247C13.8079 17.7651 13.7764 17.7111 13.7299 17.6724C13.6834 17.6336 13.6247 17.6123 13.5642 17.6123C13.5036 17.6123 13.4449 17.6336 13.3984 17.6724L8.7232 22.6298Z" fill="#F53838"/>
</svg>
